<svg width="185" height="35" viewBox="0 0 185 35" fill="none" xmlns="http://www.w3.org/2000/svg">
<path d="M11.7723 0.999999L0.472266 32.1L7.52227 34.65L9.97227 27.95H21.1223L23.5723 34.65L30.5723 32.1L19.2723 1.05L11.7723 0.999999ZM12.6723 20.45L15.5223 12.6L18.3723 20.45H12.6723ZM51.159 19.1L40.809 1.25H33.359V33.95H40.859V16.2L51.109 33.95H58.609V1.25H51.159V19.1ZM70.4988 34.1V1.4H62.9988V34.1H70.4988Z" fill="white"/>
<path d="M90.0641 15.75L82.5641 0.249999L75.8141 3.55L86.3141 25.2V33.95H93.8141V25.2L104.264 3.55L97.5641 0.249999L90.0641 15.75ZM112.407 0.999999L101.107 32.1L108.157 34.65L110.607 27.95H121.757L124.207 34.65L131.207 32.1L119.907 1.05L112.407 0.999999ZM113.307 20.45L116.157 12.6L119.007 20.45H113.307ZM161.524 1.45L153.874 22.5L146.224 1.45H139.274L133.724 33.7L141.124 35L144.124 17.55L150.124 34.05H157.574L163.624 17.55L166.624 35L173.974 33.7L168.424 1.45H161.524ZM184.513 34.1V1.4H177.013V34.1H184.513Z" fill="#FFA500"/>
</svg>
